<svg width="24" height="25" viewBox="0 0 24 25" fill="none" xmlns="http://www.w3.org/2000/svg">
<g clip-path="url(#clip0_2412_6513)">
<path d="M12 2.26758C6.48 2.26758 2 6.74758 2 12.2676C2 17.7876 6.48 22.2676 12 22.2676C17.52 22.2676 22 17.7876 22 12.2676C22 6.74758 17.52 2.26758 12 2.26758ZM12 20.2676C7.59 20.2676 4 16.6776 4 12.2676C4 7.85758 7.59 4.26758 12 4.26758C16.41 4.26758 20 7.85758 20 12.2676C20 16.6776 16.41 20.2676 12 20.2676ZM12.89 11.3676C11.11 10.7776 10.25 10.4076 10.25 9.46758C10.25 8.44758 11.36 8.07758 12.06 8.07758C13.37 8.07758 13.85 9.06758 13.96 9.41758L15.54 8.74758C15.39 8.30758 14.72 6.83758 12.88 6.51758V5.26758H11.13V6.52758C8.53 7.08758 8.51 9.37758 8.51 9.48758C8.51 11.7576 10.76 12.3976 11.86 12.7976C13.44 13.3576 14.14 13.8676 14.14 14.8276C14.14 15.9576 13.09 16.4376 12.16 16.4376C10.34 16.4376 9.82 14.5676 9.76 14.3476L8.1 15.0176C8.73 17.2076 10.38 17.7976 11.12 17.9776V19.2676H12.87V18.0276C13.39 17.9376 15.89 17.4376 15.89 14.8076C15.9 13.4176 15.29 12.1976 12.89 11.3676Z" fill="#4A5568"/>
</g>
<defs>
<clipPath id="clip0_2412_6513">
<rect width="24" height="24" fill="white" transform="translate(0 0.267578)"/>
</clipPath>
</defs>
</svg>
