<svg width="149" height="41" viewBox="0 0 149 41" fill="none" xmlns="http://www.w3.org/2000/svg">
<path d="M31.2298 5.01381C31.2219 5.02968 31.2259 5.04159 31.2417 5.04953C32.9167 5.90467 34.4039 7.00253 35.7033 8.34309C35.8844 8.53 36.0036 8.68407 36.0609 8.8053C36.487 9.70988 35.455 10.6783 34.5772 10.1854C34.4814 10.1316 34.3436 10.013 34.1637 9.82967C31.9497 7.57238 29.2064 6.11864 26.099 5.58282C25.4037 5.46267 24.7091 5.40746 23.9925 5.3887C23.5112 5.37643 23.0735 5.35226 22.7019 5.71993C22.1531 6.26261 22.4165 7.19821 23.1395 7.41939C23.2278 7.44633 23.3592 7.46017 23.5336 7.46089C23.9172 7.46257 24.171 7.46702 24.2949 7.47424C25.5101 7.54568 26.696 7.76987 27.8526 8.1468C28.1095 8.23076 28.2681 8.3906 28.3285 8.62633C28.4252 9.00339 28.2275 9.41725 27.8432 9.53416C27.7758 9.5546 27.6732 9.56483 27.5354 9.56483C23.7235 9.56531 19.9117 9.56543 16.1 9.56519C15.7901 9.56519 15.5506 9.5807 15.3812 9.61173C14.2951 9.81126 13.317 10.573 12.692 11.4407C11.9805 12.4283 11.4468 13.5266 10.8172 14.564C10.6868 14.779 10.4932 14.8828 10.2363 14.8754C9.30536 14.8482 8.54476 14.8485 7.95446 14.8764C7.48359 14.8992 7.09138 15.1965 6.92793 15.6371C6.82617 15.9113 6.78143 16.3035 6.91313 16.5709C7.06359 16.8765 7.41106 17.0251 7.71595 17.1247C8.12176 17.2575 8.53141 17.3939 8.94491 17.5339C8.95621 17.5377 8.95946 17.5451 8.95465 17.5559C8.83702 17.8261 8.68115 18.0491 8.52672 18.2988C7.77838 19.5079 7.43271 20.8762 7.39735 22.2917C7.37811 23.0597 7.35814 24.4459 7.33746 26.4501C7.33457 26.733 7.3674 26.9987 7.43596 27.2471C7.73652 28.335 8.73527 29.0375 9.8484 29.0379C12.5846 29.0389 15.3208 29.0389 18.057 29.0379C18.1112 29.0379 18.1552 29.0494 18.2032 29.0801C21.0555 30.9055 24.5828 31.1736 27.6999 29.8891C27.9075 29.8037 28.0555 29.7546 28.1438 29.7419C28.8279 29.6441 29.4037 30.2438 29.3467 30.9113C29.3246 31.1737 29.2183 31.3921 29.0278 31.5665C28.9351 31.6512 28.786 31.7372 28.5803 31.8245C27.3148 32.3621 26.0066 32.6805 24.6557 32.7796C24.348 32.802 23.9895 32.8145 23.5801 32.8171C23.3785 32.8183 23.2281 32.8342 23.1287 32.8647C22.6726 33.0051 22.3544 33.4763 22.4125 33.9562C22.4782 34.5007 22.9382 34.8767 23.4877 34.8861C25.3084 34.9174 27.1804 34.5887 28.9033 33.9234C30.9756 33.1229 32.7802 31.9143 34.317 30.2979C34.527 30.0768 34.781 29.9648 35.0791 29.962C35.8931 29.9537 36.4278 30.8759 36.0078 31.5734C35.9607 31.6515 35.8729 31.7575 35.7444 31.8913C34.4325 33.2547 32.9303 34.3655 31.2378 35.2238C31.2334 35.226 31.23 35.2299 31.2285 35.2346C31.2269 35.2393 31.2273 35.2445 31.2295 35.249C31.6311 36.0674 31.3752 37.0549 30.6222 37.5655C30.5019 37.6473 30.3211 37.732 30.0795 37.8195C28.226 38.4917 26.1867 38.8933 24.1729 38.9262C23.5346 38.9366 22.8393 38.9326 22.1848 38.8789C18.3194 38.5617 14.6704 37.029 11.7192 34.5238C11.7077 34.5142 11.7022 34.5169 11.7026 34.5321C11.7211 34.982 11.5121 35.3692 11.1098 35.5741C10.7709 35.7469 10.4146 35.7235 10.0411 35.5041C9.96723 35.4606 9.81496 35.3272 9.58428 35.104C5.72026 31.3641 3.46767 26.2848 3.32045 20.9025C3.3154 20.7204 3.31336 20.3686 3.31432 19.8471C3.32442 14.3064 5.61202 9.0171 9.58933 5.17293C9.76252 5.00551 9.96603 4.79623 10.1652 4.70026C10.9337 4.33042 11.7405 4.91891 11.7005 5.74014C11.6998 5.75698 11.7058 5.75998 11.7185 5.74916C14.097 3.72785 16.9601 2.32462 20.0224 1.70365C23.399 1.01918 27.0487 1.29412 30.2398 2.51261C31.2309 2.89111 31.7151 4.05944 31.2298 5.01381Z" fill="#319795"/>
<path d="M12.1928 16.354C12.9562 15.101 13.7265 13.8522 14.5034 12.6076C14.8881 11.9921 15.32 11.5905 16.0405 11.4689C16.175 11.4463 16.3712 11.4344 16.629 11.4331C19.8673 11.4178 23.4462 11.4174 27.3659 11.4321C28.0089 11.4345 28.5367 11.6482 28.9492 12.0732C29.0579 12.1853 29.199 12.3796 29.3725 12.656C30.1331 13.8674 30.8858 15.0834 31.6308 16.3042C31.6383 16.3165 31.6349 16.3229 31.6207 16.3233C31.5219 16.3269 31.4236 16.3285 31.3259 16.328C30.3997 16.3255 29.4738 16.3378 28.5476 16.3378C23.6677 16.3383 18.7876 16.3383 13.9074 16.3378C13.3427 16.3378 12.7686 16.3825 12.1935 16.4038C12.1903 16.4039 12.187 16.4033 12.1841 16.4019C12.1812 16.4006 12.1786 16.3985 12.1766 16.3959C12.1746 16.3934 12.1732 16.3904 12.1726 16.3872C12.172 16.384 12.1721 16.3806 12.1729 16.3775C12.1736 16.3746 12.1769 16.3706 12.1827 16.3656C12.187 16.3617 12.1903 16.3579 12.1928 16.354Z" fill="#319795"/>
<path d="M11.9661 20.2833C12.6434 20.5204 13.3221 20.7546 13.9965 21.0003C14.2688 21.0996 14.4546 21.1863 14.5539 21.2604C14.8924 21.5137 15.0663 21.9788 14.966 22.3974C14.8408 22.9206 14.398 23.255 13.8572 23.2789C13.4798 23.2958 13.0028 23.2781 12.673 23.2796C12.2066 23.2813 11.74 23.2831 11.2734 23.285C10.8133 23.2868 10.3403 23.0865 10.0451 22.707C9.48946 21.9918 9.58075 21.1562 10.1822 20.511C10.4781 20.1937 10.8413 20.0552 11.2719 20.0953C11.4148 20.1088 11.6462 20.1715 11.9661 20.2833Z" fill="#319795"/>
<path d="M29.9825 20.8993C31.064 20.5134 31.766 20.2666 32.0886 20.1589C32.9055 19.8854 33.5857 20.3699 33.9007 21.0984C34.1023 21.5646 34.0461 22.0679 33.7762 22.5161C33.4861 22.9979 33.0573 23.2516 32.4898 23.2771C32.0846 23.2951 31.5809 23.2781 31.2512 23.2796C30.7922 23.2817 30.3332 23.2822 29.8743 23.281C29.4579 23.2801 29.1368 23.1215 28.9109 22.8055C28.7034 22.5154 28.6453 22.1199 28.7647 21.7815C28.9697 21.2016 29.4611 21.0854 29.9825 20.8993Z" fill="#319795"/>
<path d="M26.1627 21.3593L17.5275 21.3744C16.919 21.3755 16.4265 21.8697 16.4275 22.4783L16.4279 22.6717C16.4289 23.2803 16.9231 23.7727 17.5317 23.7717L26.1668 23.7566C26.7754 23.7556 27.2679 23.2613 27.2669 22.6527L27.2665 22.4594C27.2655 21.8508 26.7712 21.3583 26.1627 21.3593Z" fill="#319795"/>
<path d="M47.6223 13.8897H49.9263L51.3843 18.1197L52.8603 13.8897H55.1463L52.9503 19.7037L54.5703 23.7717L58.1883 13.8537H60.8883L55.7763 26.6337H53.6343L51.3843 21.2697L49.1523 26.6337H47.0103L41.9163 13.8537H44.5803L48.2163 23.7717L49.8003 19.7037L47.6223 13.8897ZM60.2784 23.8437C60.2784 23.2317 60.4464 22.6977 60.7824 22.2417C61.1304 21.7737 61.6104 21.4137 62.2224 21.1617C62.8344 20.9097 63.5364 20.7837 64.3284 20.7837C64.7244 20.7837 65.1264 20.8137 65.5344 20.8737C65.9424 20.9337 66.2964 21.0297 66.5964 21.1617V20.6577C66.5964 20.0577 66.4164 19.5957 66.0564 19.2717C65.7084 18.9477 65.1864 18.7857 64.4904 18.7857C63.9744 18.7857 63.4824 18.8757 63.0144 19.0557C62.5464 19.2357 62.0544 19.4997 61.5384 19.8477L60.7644 18.2637C61.3884 17.8557 62.0244 17.5497 62.6724 17.3457C63.3324 17.1417 64.0224 17.0397 64.7424 17.0397C66.0864 17.0397 67.1304 17.3757 67.8744 18.0477C68.6304 18.7197 69.0084 19.6797 69.0084 20.9277V23.9337C69.0084 24.1857 69.0504 24.3657 69.1344 24.4737C69.2304 24.5817 69.3804 24.6477 69.5844 24.6717V26.6337C69.3684 26.6697 69.1704 26.6997 68.9904 26.7237C68.8224 26.7477 68.6784 26.7597 68.5584 26.7597C68.0784 26.7597 67.7124 26.6517 67.4604 26.4357C67.2204 26.2197 67.0704 25.9557 67.0104 25.6437L66.9564 25.1577C66.5484 25.6857 66.0384 26.0937 65.4264 26.3817C64.8144 26.6697 64.1904 26.8137 63.5544 26.8137C62.9304 26.8137 62.3664 26.6877 61.8624 26.4357C61.3704 26.1717 60.9804 25.8177 60.6924 25.3737C60.4164 24.9177 60.2784 24.4077 60.2784 23.8437ZM66.1464 24.3297C66.2784 24.1857 66.3864 24.0417 66.4704 23.8977C66.5544 23.7537 66.5964 23.6217 66.5964 23.5017V22.5477C66.3084 22.4277 65.9964 22.3377 65.6604 22.2777C65.3244 22.2057 65.0064 22.1697 64.7064 22.1697C64.0824 22.1697 63.5664 22.3077 63.1584 22.5837C62.7624 22.8477 62.5644 23.2017 62.5644 23.6457C62.5644 23.8857 62.6304 24.1137 62.7624 24.3297C62.8944 24.5457 63.0864 24.7197 63.3384 24.8517C63.5904 24.9837 63.8904 25.0497 64.2384 25.0497C64.5984 25.0497 64.9524 24.9837 65.3004 24.8517C65.6484 24.7077 65.9304 24.5337 66.1464 24.3297ZM74.7363 26.8137C73.9323 26.8137 73.1643 26.6817 72.4323 26.4177C71.7003 26.1537 71.0703 25.7637 70.5423 25.2477L71.4063 23.6817C71.9703 24.1377 72.5223 24.4737 73.0623 24.6897C73.6143 24.9057 74.1423 25.0137 74.6463 25.0137C75.1143 25.0137 75.4863 24.9297 75.7623 24.7617C76.0503 24.5937 76.1943 24.3417 76.1943 24.0057C76.1943 23.7777 76.1163 23.6037 75.9603 23.4837C75.8043 23.3517 75.5763 23.2377 75.2763 23.1417C74.9883 23.0457 74.6343 22.9377 74.2143 22.8177C73.5183 22.5897 72.9363 22.3677 72.4683 22.1517C72.0003 21.9357 71.6463 21.6657 71.4063 21.3417C71.1783 21.0057 71.0643 20.5797 71.0643 20.0637C71.0643 19.4397 71.2203 18.9057 71.5323 18.4617C71.8563 18.0057 72.3003 17.6517 72.8643 17.3997C73.4403 17.1477 74.1123 17.0217 74.8803 17.0217C75.5523 17.0217 76.1883 17.1297 76.7883 17.3457C77.3883 17.5497 77.9343 17.8857 78.4263 18.3537L77.4543 19.8837C76.9743 19.5117 76.5183 19.2417 76.0863 19.0737C75.6543 18.8937 75.2163 18.8037 74.7723 18.8037C74.5203 18.8037 74.2803 18.8337 74.0523 18.8937C73.8363 18.9537 73.6563 19.0557 73.5123 19.1997C73.3803 19.3317 73.3143 19.5237 73.3143 19.7757C73.3143 20.0037 73.3743 20.1837 73.4943 20.3157C73.6263 20.4357 73.8183 20.5437 74.0703 20.6397C74.3343 20.7357 74.6523 20.8437 75.0243 20.9637C75.7803 21.1797 76.4163 21.4017 76.9323 21.6297C77.4603 21.8577 77.8563 22.1397 78.1203 22.4757C78.3843 22.7997 78.5163 23.2497 78.5163 23.8257C78.5163 24.7617 78.1743 25.4937 77.4903 26.0217C76.8063 26.5497 75.8883 26.8137 74.7363 26.8137ZM88.9228 26.6337H86.5108V21.3417C86.5108 20.6097 86.3668 20.0637 86.0788 19.7037C85.8028 19.3437 85.4188 19.1637 84.9268 19.1637C84.6388 19.1637 84.3328 19.2477 84.0088 19.4157C83.6848 19.5837 83.3908 19.8177 83.1268 20.1177C82.8748 20.4057 82.6888 20.7417 82.5688 21.1257V26.6337H80.1568V13.4937H82.5688V18.9477C82.9168 18.3477 83.3908 17.8797 83.9908 17.5437C84.5908 17.2077 85.2448 17.0397 85.9528 17.0397C86.5648 17.0397 87.0628 17.1477 87.4468 17.3637C87.8308 17.5677 88.1308 17.8497 88.3468 18.2097C88.5628 18.5577 88.7128 18.9537 88.7968 19.3977C88.8808 19.8297 88.9228 20.2797 88.9228 20.7477V26.6337ZM94.6963 23.8437C94.6963 23.2317 94.8643 22.6977 95.2003 22.2417C95.5483 21.7737 96.0283 21.4137 96.6403 21.1617C97.2523 20.9097 97.9543 20.7837 98.7463 20.7837C99.1423 20.7837 99.5443 20.8137 99.9523 20.8737C100.36 20.9337 100.714 21.0297 101.014 21.1617V20.6577C101.014 20.0577 100.834 19.5957 100.474 19.2717C100.126 18.9477 99.6043 18.7857 98.9083 18.7857C98.3923 18.7857 97.9003 18.8757 97.4323 19.0557C96.9643 19.2357 96.4723 19.4997 95.9563 19.8477L95.1823 18.2637C95.8063 17.8557 96.4423 17.5497 97.0903 17.3457C97.7503 17.1417 98.4403 17.0397 99.1603 17.0397C100.504 17.0397 101.548 17.3757 102.292 18.0477C103.048 18.7197 103.426 19.6797 103.426 20.9277V23.9337C103.426 24.1857 103.468 24.3657 103.552 24.4737C103.648 24.5817 103.798 24.6477 104.002 24.6717V26.6337C103.786 26.6697 103.588 26.6997 103.408 26.7237C103.24 26.7477 103.096 26.7597 102.976 26.7597C102.496 26.7597 102.13 26.6517 101.878 26.4357C101.638 26.2197 101.488 25.9557 101.428 25.6437L101.374 25.1577C100.966 25.6857 100.456 26.0937 99.8443 26.3817C99.2323 26.6697 98.6083 26.8137 97.9723 26.8137C97.3483 26.8137 96.7843 26.6877 96.2803 26.4357C95.7883 26.1717 95.3983 25.8177 95.1103 25.3737C94.8343 24.9177 94.6963 24.4077 94.6963 23.8437ZM100.564 24.3297C100.696 24.1857 100.804 24.0417 100.888 23.8977C100.972 23.7537 101.014 23.6217 101.014 23.5017V22.5477C100.726 22.4277 100.414 22.3377 100.078 22.2777C99.7423 22.2057 99.4243 22.1697 99.1243 22.1697C98.5003 22.1697 97.9843 22.3077 97.5763 22.5837C97.1803 22.8477 96.9823 23.2017 96.9823 23.6457C96.9823 23.8857 97.0483 24.1137 97.1803 24.3297C97.3123 24.5457 97.5043 24.7197 97.7563 24.8517C98.0083 24.9837 98.3083 25.0497 98.6563 25.0497C99.0163 25.0497 99.3703 24.9837 99.7183 24.8517C100.066 24.7077 100.348 24.5337 100.564 24.3297ZM105.104 21.9177C105.104 21.0057 105.284 20.1837 105.644 19.4517C106.004 18.7077 106.502 18.1197 107.138 17.6877C107.774 17.2557 108.5 17.0397 109.316 17.0397C110.012 17.0397 110.636 17.2137 111.188 17.5617C111.752 17.8977 112.19 18.3297 112.502 18.8577V13.4937H114.914V23.9337C114.914 24.1857 114.956 24.3657 115.04 24.4737C115.124 24.5817 115.268 24.6477 115.472 24.6717V26.6337C115.052 26.7177 114.71 26.7597 114.446 26.7597C114.014 26.7597 113.654 26.6517 113.366 26.4357C113.09 26.2197 112.934 25.9377 112.898 25.5897L112.862 24.9957C112.514 25.5837 112.04 26.0337 111.44 26.3457C110.852 26.6577 110.234 26.8137 109.586 26.8137C108.938 26.8137 108.338 26.6877 107.786 26.4357C107.246 26.1837 106.772 25.8357 106.364 25.3917C105.968 24.9477 105.656 24.4317 105.428 23.8437C105.212 23.2437 105.104 22.6017 105.104 21.9177ZM112.502 23.1777V20.9277C112.382 20.5797 112.19 20.2677 111.926 19.9917C111.662 19.7157 111.368 19.4997 111.044 19.3437C110.72 19.1757 110.396 19.0917 110.072 19.0917C109.7 19.0917 109.364 19.1697 109.064 19.3257C108.764 19.4817 108.5 19.6917 108.272 19.9557C108.056 20.2197 107.888 20.5257 107.768 20.8737C107.66 21.2217 107.606 21.5877 107.606 21.9717C107.606 22.3557 107.666 22.7217 107.786 23.0697C107.918 23.4057 108.104 23.6997 108.344 23.9517C108.584 24.2037 108.86 24.4017 109.172 24.5457C109.496 24.6897 109.844 24.7617 110.216 24.7617C110.444 24.7617 110.672 24.7257 110.9 24.6537C111.14 24.5697 111.362 24.4617 111.566 24.3297C111.782 24.1857 111.968 24.0177 112.124 23.8257C112.292 23.6217 112.418 23.4057 112.502 23.1777ZM131.934 26.6337H129.522V21.3417C129.522 20.5977 129.39 20.0517 129.126 19.7037C128.874 19.3437 128.52 19.1637 128.064 19.1637C127.596 19.1637 127.146 19.3497 126.714 19.7217C126.294 20.0817 125.994 20.5557 125.814 21.1437V26.6337H123.402V21.3417C123.402 20.5857 123.27 20.0337 123.006 19.6857C122.754 19.3377 122.4 19.1637 121.944 19.1637C121.476 19.1637 121.026 19.3437 120.594 19.7037C120.174 20.0637 119.874 20.5377 119.694 21.1257V26.6337H117.282V17.2017H119.46V18.9477C119.82 18.3357 120.3 17.8677 120.9 17.5437C121.5 17.2077 122.19 17.0397 122.97 17.0397C123.75 17.0397 124.356 17.2317 124.788 17.6157C125.232 17.9997 125.514 18.4737 125.634 19.0377C126.018 18.3897 126.504 17.8977 127.092 17.5617C127.692 17.2137 128.364 17.0397 129.108 17.0397C129.696 17.0397 130.17 17.1477 130.53 17.3637C130.902 17.5677 131.19 17.8497 131.394 18.2097C131.598 18.5577 131.736 18.9537 131.808 19.3977C131.892 19.8417 131.934 20.2917 131.934 20.7477V26.6337ZM134.034 26.6337V17.2017H136.446V26.6337H134.034ZM134.034 15.8877V13.4937H136.446V15.8877H134.034ZM147.388 26.6337H144.976V21.3417C144.976 20.5857 144.844 20.0337 144.58 19.6857C144.316 19.3377 143.95 19.1637 143.482 19.1637C143.158 19.1637 142.828 19.2477 142.492 19.4157C142.168 19.5837 141.874 19.8177 141.61 20.1177C141.346 20.4057 141.154 20.7417 141.034 21.1257V26.6337H138.622V17.2017H140.8V18.9477C141.04 18.5397 141.346 18.1977 141.718 17.9217C142.09 17.6337 142.516 17.4177 142.996 17.2737C143.488 17.1177 144.004 17.0397 144.544 17.0397C145.132 17.0397 145.612 17.1477 145.984 17.3637C146.368 17.5677 146.656 17.8497 146.848 18.2097C147.052 18.5577 147.19 18.9537 147.262 19.3977C147.346 19.8417 147.388 20.2917 147.388 20.7477V26.6337Z" fill="#222649"/>
</svg>
